<?xml version="1.0" encoding="utf-8"?>
<!-- Generator: Adobe Illustrator 24.3.0, SVG Export Plug-In . SVG Version: 6.00 Build 0)  -->
<svg version="1.1" id="Layer_1" xmlns="http://www.w3.org/2000/svg" xmlns:xlink="http://www.w3.org/1999/xlink" x="0px" y="0px"
	 viewBox="0 0 300 300" enable-background="new 0 0 300 300" xml:space="preserve">
<g>
	<g>
		<g>
			<path fill="#9AE8CE" d="M195.253,159.096c-3.103-9.184-5.415-16.025-5.661-16.75c-2.967-8.779-9.448-19.63-23.392-28.972
				c-3.934-2.632-7.218-5.612-10.047-8.749l-30.095,10.17c-0.34,4.186-1.151,8.572-2.605,13.027
				c-3.615,11.129-4.098,22.365-2.477,31.274H195.253z"/>
		</g>
		<g>
			<path fill="#FE6F80" d="M161.717,128.541c-1.19-3.522-5.005-5.408-8.53-4.218c-3.417,1.157-5.288,4.789-4.305,8.226l-0.022-0.006
				l-0.006,0.012c-1.302-3.327-4.993-5.079-8.408-3.925c-3.524,1.19-5.411,5.008-4.221,8.53c0.528,1.563,1.581,2.806,2.892,3.597
				l0,0l14.958,7.195l7.531-14.794l-0.006,0.003C162.165,131.737,162.247,130.106,161.717,128.541z"/>
		</g>
		<g>
			<path fill="#FFA1AA" d="M146.338,138.009c-1.311-0.79-2.364-2.034-2.892-3.596c-0.701-2.075-0.312-4.242,0.829-5.926
				c-1.221-0.317-2.546-0.296-3.83,0.139c-3.524,1.19-5.411,5.008-4.221,8.531c0.528,1.563,1.581,2.806,2.892,3.596l14.958,7.195
				l2.542-4.996L146.338,138.009z"/>
		</g>
		<g>
			<path fill="#FE6F80" d="M76.492,89.321c-0.01-3.442-2.808-6.222-6.257-6.216c-3.345,0.009-6.056,2.652-6.204,5.964l-0.018-0.012
				l-0.009,0.006c-0.164-3.306-2.895-5.932-6.235-5.923c-3.447,0.009-6.23,2.809-6.22,6.257c0.003,1.525,0.564,2.93,1.483,4.011l0,0
				l11.03,10.727L75.034,93.35l-0.003,0.003C75.946,92.264,76.496,90.855,76.492,89.321z"/>
		</g>
		<g>
			<path fill="#FFA1AA" d="M60.519,93.391c-0.919-1.08-1.48-2.486-1.483-4.01c-0.006-2.04,0.98-3.836,2.486-4.979
				c-1.048-0.793-2.337-1.282-3.753-1.279c-3.447,0.009-6.23,2.809-6.22,6.257c0.003,1.524,0.564,2.93,1.483,4.01l11.03,10.727
				l3.723-3.661L60.519,93.391z"/>
		</g>
		<g>
			<path fill="#9AE8CE" d="M259.132,159.096c0-9.51,0-16.774,0-17.502c0-8.246-2.371-19.242-11.464-31.088
				c-7.891-10.277-10.147-21.581-10.147-30.73V48.344h-19.77v31.292c0,8.057-2.205,20.092-10.238,30.869
				c-7.699,10.33-11.467,22.205-11.467,31.088c0,0.728,0,7.992,0,17.502H259.132z"/>
		</g>
		<g>
			<polygon fill="#F4F4F4" points="253.168,271.239 131.961,271.239 114.829,159.096 270.3,159.096 			"/>
		</g>
		<g>
			<path fill="#FFDA88" d="M240.39,47.152c0,0.66-0.536,1.193-1.193,1.193h-23.203c-0.663,0-1.202-0.533-1.202-1.193V29.957
				c0-0.66,0.539-1.196,1.202-1.196h23.203c0.657,0,1.193,0.535,1.193,1.196V47.152z"/>
		</g>
		<g>
			<path fill="#AEF4DB" d="M217.448,110.506c8.033-10.777,10.238-22.812,10.238-30.869V48.344h-9.934v31.292
				c0,8.057-2.205,20.092-10.238,30.869c-7.699,10.33-11.467,22.205-11.467,31.088c0,0.728,0,7.992,0,17.502h9.933
				c0-9.51,0-16.774,0-17.502C205.981,132.711,209.749,120.836,217.448,110.506z"/>
		</g>
		<g>
			<path fill="#FFE2A9" d="M224.895,47.152V29.957c0-0.66,0.539-1.196,1.202-1.196h-10.102c-0.663,0-1.202,0.535-1.202,1.196v17.194
				c0,0.66,0.539,1.193,1.202,1.193h10.102C225.434,48.344,224.895,47.811,224.895,47.152z"/>
		</g>
		<g>
			<path fill="#9AE8CE" d="M135.659,48.554c0.237,0.702-0.139,1.462-0.842,1.696l-24.698,8.35c-0.704,0.237-1.467-0.136-1.705-0.838
				l-5.843-17.286c-0.236-0.699,0.143-1.462,0.848-1.702l24.699-8.347c0.701-0.237,1.462,0.142,1.697,0.84L135.659,48.554z"/>
		</g>
		<g>
			<path fill="#FFDA88" d="M144.382,84.302l-11.308-33.459l-21.042,7.11l11.259,33.317c1.998,5.911,3.561,14.214,2.803,23.511
				l30.098-10.17C150.324,98.101,146.605,90.875,144.382,84.302z"/>
		</g>
		<g>
			<path fill="#AEF4DB" d="M131.643,127.821c1.453-4.455,2.264-8.841,2.605-13.027l23.898-8.077
				c-0.687-0.69-1.355-1.385-1.993-2.093l-30.095,10.17c-0.34,4.186-1.151,8.572-2.605,13.027
				c-3.615,11.129-4.098,22.365-2.477,31.274h8.19C127.544,150.187,128.027,138.951,131.643,127.821z"/>
		</g>
		<g>
			<path fill="#AEF4DB" d="M110.762,40.477c-0.235-0.699,0.144-1.462,0.848-1.702l18.618-6.293l-0.412-1.214
				c-0.235-0.699-0.996-1.077-1.697-0.84l-24.699,8.347c-0.705,0.24-1.084,1.003-0.848,1.702l5.843,17.286
				c0.238,0.702,1.001,1.074,1.705,0.838l6.074-2.054L110.762,40.477z"/>
		</g>
		<g>
			<path fill="#FFE2A9" d="M134.431,111.962c0.271-8.149-1.156-15.389-2.949-20.693l-11.26-33.317l13.691-4.626l-0.839-2.484
				l-21.042,7.11l11.259,33.317c1.998,5.911,3.561,14.214,2.803,23.511L134.431,111.962z"/>
		</g>
		<g>
			<path fill="#E5E5E4" d="M29.626,144.181v59.358c0,7.48,6.065,13.545,13.543,13.545c7.48,0,13.545-6.065,13.545-13.545v-59.358
				H29.626z"/>
		</g>
		<g>
			<path fill="#E5E5E4" d="M72.665,144.181v59.358c0,7.48,6.065,13.545,13.543,13.545c7.48,0,13.545-6.065,13.545-13.545v-59.358
				H72.665z"/>
		</g>
		<g>
			<path fill="#EFEFEF" d="M80.936,203.539v-59.358h-8.335v59.358c0,7.48,6.065,13.545,13.543,13.545
				c1.464,0,2.847-0.293,4.168-0.722C84.886,214.594,80.936,209.554,80.936,203.539z"/>
		</g>
		<g>
			<path fill="#EFEFEF" d="M37.899,203.539v-59.358h-8.335v59.358c0,7.48,6.065,13.545,13.543,13.545
				c1.464,0,2.848-0.293,4.168-0.722C41.849,214.594,37.899,209.554,37.899,203.539z"/>
		</g>
		<g>
			<path fill="#FFDA88" d="M29.626,162.941v40.598c0,7.48,6.065,13.545,13.543,13.545c7.48,0,13.545-6.065,13.545-13.545v-40.598
				H29.626z"/>
		</g>
		<g>
			<path fill="#FFE2A9" d="M37.708,203.539v-40.598h-8.082v40.598c0,7.48,6.065,13.545,13.543,13.545
				c1.418,0,2.757-0.278,4.042-0.684C41.718,214.675,37.708,209.601,37.708,203.539z"/>
		</g>
		<g>
			<path fill="#FFDA88" d="M72.665,169.76v33.779c0,7.48,6.065,13.545,13.543,13.545c7.48,0,13.545-6.065,13.545-13.545V169.76
				H72.665z"/>
		</g>
		<g>
			<path fill="#FFE2A9" d="M80.747,203.539V169.76h-8.082v33.779c0,7.48,6.065,13.545,13.543,13.545
				c1.418,0,2.757-0.278,4.042-0.684C84.757,214.675,80.747,209.601,80.747,203.539z"/>
		</g>
		<g>
			<g>
				<path fill="#FE6F80" d="M70.74,128.502c-0.556,0-1.122-0.101-1.669-0.32c-2.326-0.924-3.472-3.543-2.559-5.872
					c2.912-7.438,13.192-20.971,31.193-19.018c2.495,0.272,4.299,2.516,4.027,5.011c-0.274,2.495-2.515,4.286-5.013,4.028
					c-15.522-1.705-21.502,12.701-21.75,13.314C74.255,127.419,72.546,128.502,70.74,128.502z"/>
			</g>
		</g>
		<g>
			<g>
				<path fill="#FE6F80" d="M56.434,128.514c-1.956,0-3.759-1.27-4.351-3.232c-0.154-0.485-3.357-10.114-16.333-13.861
					c-2.412-0.699-3.804-3.218-3.106-5.63c0.696-2.415,3.219-3.806,5.628-3.108c17.995,5.198,22.35,19.402,22.526,20.006
					c0.706,2.409-0.675,4.934-3.084,5.642C57.288,128.455,56.857,128.514,56.434,128.514z"/>
			</g>
		</g>
		<g>
			<polygon fill="#FFDA88" points="264.588,196.477 266.565,183.548 118.564,183.548 120.54,196.477 			"/>
		</g>
		<g>
			<polygon fill="#F9F9F9" points="114.829,159.096 131.961,271.239 145.254,271.239 128.122,159.096 			"/>
		</g>
		<g>
			<polygon fill="#FFE2A9" points="118.564,183.548 120.54,196.477 133.833,196.477 131.857,183.548 			"/>
		</g>
		<g>
			<path fill="#F4F4F4" d="M61.26,203.539v-59.358c0-2.51-2.035-4.546-4.547-4.546H29.626c-2.511,0-4.546,2.036-4.546,4.546v59.358
				c0,8.403,5.766,15.466,13.545,17.49v38.902h-2.93c-5.107,0-9.247,4.138-9.247,9.247h33.447c0-5.109-4.139-9.247-9.247-9.247
				h-2.93v-38.902C55.494,219.002,61.26,211.939,61.26,203.539z M34.172,203.539v-54.812h17.995v54.812
				c0,4.961-4.036,8.998-8.998,8.998C38.208,212.537,34.172,208.5,34.172,203.539z"/>
		</g>
		<g>
			<path fill="#F9F9F9" d="M40.998,259.932h2.93v-38.902c-7.779-2.024-13.545-9.087-13.545-17.49v-59.358
				c0-2.51,2.035-4.546,4.546-4.546h-5.304c-2.511,0-4.546,2.036-4.546,4.546v59.358c0,8.403,5.766,15.466,13.545,17.49v38.902
				h-2.93c-5.107,0-9.247,4.138-9.247,9.247h5.304C31.751,264.07,35.89,259.932,40.998,259.932z"/>
		</g>
		<g>
			<path fill="#F4F4F4" d="M104.299,203.539v-59.358c0-2.51-2.035-4.546-4.546-4.546H72.665c-2.511,0-4.547,2.036-4.547,4.546
				v59.358c0,8.403,5.766,15.466,13.545,17.49v38.902h-2.93c-5.107,0-9.247,4.138-9.247,9.247h33.447
				c0-5.109-4.139-9.247-9.247-9.247h-2.93v-38.902C98.533,219.002,104.299,211.939,104.299,203.539z M77.211,203.539v-54.812
				h17.995v54.812c0,4.961-4.036,8.998-8.998,8.998C81.247,212.537,77.211,208.5,77.211,203.539z"/>
		</g>
		<g>
			<path fill="#F9F9F9" d="M84.036,259.932h2.93v-38.902c-7.779-2.024-13.545-9.087-13.545-17.49v-59.358
				c0-2.51,2.035-4.546,4.547-4.546h-5.304c-2.511,0-4.547,2.036-4.547,4.546v59.358c0,8.403,5.766,15.466,13.545,17.49v38.902
				h-2.93c-5.107,0-9.247,4.138-9.247,9.247h5.304C74.79,264.07,78.929,259.932,84.036,259.932z"/>
		</g>
		<g>
			<rect x="217.753" y="64.813" fill="#FFDA88" width="19.769" height="11.573"/>
		</g>
		<g>
			<rect x="217.753" y="64.813" fill="#FFE2A9" width="9.883" height="11.573"/>
		</g>
		<g>
			<rect x="196.047" y="141.265" fill="#FFDA88" width="63.088" height="17.831"/>
		</g>
		<g>
			<rect x="196.047" y="141.265" fill="#FFE2A9" width="9.809" height="17.831"/>
		</g>
	</g>
	<g>
		<g>
			<path fill="#161616" d="M154.147,152.498c-0.662,0-1.333-0.145-1.968-0.45l-14.958-7.196c-0.129-0.062-0.253-0.13-0.376-0.201
				c-2.278-1.373-4-3.516-4.851-6.035c-0.965-2.856-0.761-5.914,0.574-8.61c1.335-2.702,3.644-4.721,6.498-5.683
				c2.383-0.808,4.851-0.772,7.083-0.047c1.33-1.927,3.272-3.451,5.655-4.259c5.887-1.989,12.304,1.181,14.295,7.068l0,0l0,0l0,0
				c0.826,2.442,0.787,5.094-0.101,7.5c-0.071,0.216-0.16,0.429-0.265,0.636l-7.531,14.794
				C157.4,151.589,155.804,152.498,154.147,152.498z M141.409,136.778l10.706,5.15l5.378-10.567
				c0.111-0.334,0.179-0.811-0.007-1.364l0,0c-0.386-1.143-1.631-1.746-2.771-1.368c-1.097,0.373-1.709,1.545-1.387,2.67
				c0.45,1.572,0.019,3.268-1.128,4.434c-0.875,0.891-2.115,1.24-3.277,1.362c-0.065,0-0.132-0.003-0.198-0.006
				c-1.795-0.08-3.376-1.205-4.032-2.877c-0.425-1.089-1.622-1.646-2.717-1.276c-0.747,0.252-1.11,0.796-1.259,1.098
				c-0.15,0.305-0.363,0.924-0.111,1.669C140.789,136.239,141.122,136.577,141.409,136.778z"/>
		</g>
		<g>
			<path fill="#161616" d="M64.137,108.682c-1.144,0-2.287-0.429-3.17-1.287l-11.03-10.727c-0.102-0.101-0.2-0.204-0.293-0.314
				c-1.65-1.939-2.562-4.407-2.566-6.947c-0.009-2.877,1.106-5.588,3.136-7.634c2.03-2.042,4.737-3.17,7.619-3.179
				c0.009,0,0.019,0,0.03,0c2.309,0,4.452,0.725,6.208,1.962c1.758-1.255,3.907-1.992,6.228-1.998c0.006,0,0.012,0,0.019,0
				c5.939,0,10.779,4.819,10.796,10.747c0,0,0,0,0,0.003c0.007,2.543-0.89,5.02-2.525,6.968c-0.093,0.109-0.192,0.216-0.295,0.317
				l-10.969,10.783C66.44,108.247,65.288,108.682,64.137,108.682z M56.48,90.349l7.639,7.429l7.598-7.471
				c0.155-0.219,0.305-0.545,0.303-0.971l0,0c-0.003-0.929-0.765-1.684-1.701-1.684c0,0-0.002,0-0.003,0
				c-0.894,0.003-1.629,0.713-1.669,1.622c-0.074,1.637-1.024,3.111-2.486,3.851c-1.19,0.604-2.572,0.651-3.78,0.151
				c-0.116-0.047-0.231-0.098-0.343-0.154c-1.461-0.737-2.418-2.199-2.5-3.833c-0.044-0.9-0.781-1.601-1.678-1.601
				c-0.001,0-0.003,0-0.004,0c-0.61,0.003-1.009,0.314-1.194,0.497c-0.183,0.186-0.493,0.589-0.491,1.199
				C56.172,89.819,56.338,90.147,56.48,90.349z"/>
		</g>
		<g>
			<path fill="#161616" d="M259.208,163.642h-63.085c-2.511,0-4.546-2.036-4.546-4.546v-17.502c0-9.105,3.367-19.743,9.239-29.191
				c1.325-2.131,4.128-2.782,6.262-1.462c2.133,1.326,2.787,4.129,1.461,6.263c-4.927,7.927-7.869,17.043-7.869,24.39v12.956h53.992
				v-12.956c0-9.697-3.542-19.225-10.525-28.321c-9.162-11.931-11.086-24.801-11.086-33.497V52.891h-10.675v26.746
				c0,5.961-1.159,12.571-3.262,18.612c-0.824,2.371-3.423,3.623-5.788,2.8c-2.371-0.826-3.624-3.419-2.799-5.79
				c2.398-6.888,2.756-12.745,2.756-15.622V48.344c0-2.51,2.035-4.546,4.546-4.546h19.768c2.511,0,4.546,2.036,4.546,4.546v31.431
				c0,7.287,1.597,18.053,9.207,27.962c8.115,10.567,12.405,22.276,12.405,33.856v17.502
				C263.754,161.606,261.719,163.642,259.208,163.642z"/>
		</g>
		<g>
			<path fill="#161616" d="M253.242,275.785h-15.458c-2.512,0-4.546-2.037-4.546-4.547c0-2.51,2.035-4.546,4.546-4.546h11.554
				l15.742-103.05H120.198l15.742,103.05h81.698c2.512,0,4.546,2.036,4.546,4.546c0,2.51-2.035,4.547-4.546,4.547h-85.603
				c-2.245,0-4.156-1.64-4.495-3.86l-17.132-112.143c-0.2-1.311,0.182-2.643,1.046-3.65c0.863-1.006,2.122-1.583,3.448-1.583h155.47
				c1.326,0,2.586,0.577,3.448,1.583c0.864,1.006,1.246,2.338,1.046,3.65l-17.132,112.143
				C257.398,274.145,255.487,275.785,253.242,275.785z"/>
		</g>
		<g>
			<path fill="#161616" d="M239.271,52.891H216.07c-3.17,0-5.748-2.575-5.748-5.739V29.957c0-3.167,2.578-5.742,5.748-5.742h23.201
				c3.166,0,5.741,2.575,5.741,5.742v17.194C245.012,50.316,242.437,52.891,239.271,52.891z M219.415,43.798h16.505v-10.49h-16.505
				V43.798z"/>
		</g>
		<g>
			<path fill="#161616" d="M237.596,80.933h-19.768c-2.512,0-4.546-2.036-4.546-4.546V64.813c0-2.51,2.035-4.546,4.546-4.546h19.768
				c2.511,0,4.546,2.036,4.546,4.546v11.573C242.142,78.897,240.107,80.933,237.596,80.933z M222.375,71.84h10.675v-2.48h-10.675
				V71.84z"/>
		</g>
		<g>
			<path fill="#161616" d="M259.211,163.642h-63.088c-2.511,0-4.546-2.036-4.546-4.546v-17.831c0-2.51,2.035-4.546,4.546-4.546
				h63.088c2.511,0,4.546,2.036,4.546,4.546v17.831C263.757,161.606,261.722,163.642,259.211,163.642z M200.669,154.549h53.995
				v-8.738h-53.995V154.549z"/>
		</g>
		<g>
			<path fill="#161616" d="M109.772,63.215c-2.46,0-4.757-1.545-5.587-3.99L98.34,41.933c-1.035-3.072,0.622-6.417,3.69-7.462
				l24.708-8.35c1.493-0.506,3.09-0.397,4.501,0.305c1.409,0.698,2.46,1.903,2.961,3.392l5.841,17.28l0.002,0.003
				c0.505,1.495,0.395,3.093-0.308,4.505c-0.703,1.412-1.912,2.46-3.407,2.957l-24.677,8.344
				C111.028,63.117,110.395,63.215,109.772,63.215z M107.981,42.057l3.789,11.212l18.63-6.299l-3.787-11.209L107.981,42.057z
				 M131.426,50.008L131.426,50.008L131.426,50.008z M133.436,45.944c-0.009,0.003-0.018,0.006-0.028,0.009L133.436,45.944z"/>
		</g>
		<g>
			<path fill="#161616" d="M126.17,119.326c-1,0-1.988-0.331-2.799-0.965c-1.206-0.941-1.857-2.427-1.733-3.951
				c0.804-9.854-1.271-17.816-2.578-21.684L107.8,59.409c-0.386-1.143-0.303-2.392,0.232-3.472c0.534-1.08,1.477-1.906,2.619-2.291
				l21.042-7.11c2.378-0.805,4.958,0.474,5.761,2.85l11.308,33.459c2.355,6.965,6.117,13.438,10.881,18.718
				c1.024,1.14,1.409,2.714,1.021,4.194c-0.386,1.483-1.493,2.67-2.944,3.158l-30.098,10.17
				C127.149,119.246,126.658,119.326,126.17,119.326z M117.87,60.803l9.803,29.01c1.219,3.605,3.006,10.235,3.216,18.574
				l17.767-6.003c-3.598-5.032-6.496-10.679-8.505-16.626l0,0l-9.854-29.152L117.87,60.803z"/>
		</g>
		<g>
			<path fill="#161616" d="M195.328,163.642H121.05c-2.198,0-4.08-1.572-4.472-3.732c-1.911-10.505-0.978-22.398,2.625-33.494
				c1.258-3.854,2.065-7.885,2.398-11.991c0.148-1.809,1.357-3.357,3.075-3.937l30.095-10.17c1.721-0.583,3.617-0.083,4.832,1.261
				c2.849,3.158,5.858,5.781,9.199,8.015c12.343,8.27,21.047,19.091,25.171,31.295l5.661,16.75c0.469,1.388,0.241,2.918-0.613,4.108
				C198.168,162.938,196.793,163.642,195.328,163.642z M124.997,154.549h63.995l-3.632-10.745
				c-3.528-10.443-10.801-19.408-21.616-26.654c-3.164-2.116-6.069-4.517-8.819-7.287l-24.579,8.306
				c-0.493,3.777-1.329,7.486-2.495,11.061C125.172,137.474,124.175,146.495,124.997,154.549z"/>
		</g>
		<g>
			<path fill="#161616" d="M43.244,221.63c-9.975,0-18.09-8.116-18.09-18.091v-59.358c0-2.51,2.035-4.546,4.546-4.546h27.088
				c2.512,0,4.546,2.036,4.546,4.546v59.358C61.335,213.514,53.219,221.63,43.244,221.63z M34.248,148.727v54.812
				c0,4.961,4.036,8.998,8.997,8.998c4.962,0,8.998-4.037,8.998-8.998v-54.812H34.248z"/>
		</g>
		<g>
			<path fill="#161616" d="M43.244,221.63c-9.975,0-18.09-8.116-18.09-18.091v-40.598c0-2.51,2.035-4.547,4.546-4.547h27.088
				c2.512,0,4.546,2.036,4.546,4.547v40.598C61.335,213.514,53.219,221.63,43.244,221.63z M34.248,167.487v36.052
				c0,4.961,4.036,8.998,8.997,8.998c4.962,0,8.998-4.037,8.998-8.998v-36.052H34.248z"/>
		</g>
		<g>
			<path fill="#161616" d="M50.722,259.932h-2.93v-42.848c0-0.278-0.034-0.551-0.083-0.814c-1.404,0.494-2.892,0.814-4.465,0.814
				c-1.573,0-3.059-0.32-4.463-0.814c-0.047,0.266-0.081,0.536-0.081,0.814v42.848h-2.93c-5.107,0-9.247,4.138-9.247,9.247h33.447
				C59.969,264.07,55.83,259.932,50.722,259.932z"/>
		</g>
		<g>
			<path fill="#161616" d="M86.283,221.63c-9.975,0-18.09-8.116-18.09-18.091v-59.358c0-2.51,2.035-4.546,4.546-4.546h27.088
				c2.511,0,4.546,2.036,4.546,4.546v59.358C104.374,213.514,96.258,221.63,86.283,221.63z M77.286,148.727v54.812
				c0,4.961,4.036,8.998,8.997,8.998c4.962,0,8.998-4.037,8.998-8.998v-54.812H77.286z"/>
		</g>
		<g>
			<path fill="#161616" d="M86.283,221.63c-9.975,0-18.09-8.116-18.09-18.091V169.76c0-2.51,2.035-4.546,4.546-4.546h27.088
				c2.511,0,4.546,2.036,4.546,4.546v33.779C104.374,213.514,96.258,221.63,86.283,221.63z M77.286,174.307v29.232
				c0,4.961,4.036,8.998,8.997,8.998c4.962,0,8.998-4.037,8.998-8.998v-29.232H77.286z"/>
		</g>
		<g>
			<path fill="#161616" d="M93.761,259.932h-2.93v-42.848c0-0.278-0.034-0.551-0.083-0.814c-1.405,0.494-2.892,0.814-4.465,0.814
				c-1.573,0-3.059-0.32-4.464-0.814c-0.047,0.266-0.081,0.536-0.081,0.814v42.848h-2.93c-5.107,0-9.246,4.138-9.246,9.247h33.447
				C103.008,264.07,98.869,259.932,93.761,259.932z"/>
		</g>
		<g>
			<path fill="#161616" d="M70.816,128.502c-0.557,0-1.122-0.101-1.669-0.32c-2.326-0.923-3.472-3.543-2.559-5.872
				c2.913-7.438,13.187-20.977,31.193-19.018c2.495,0.272,4.299,2.516,4.027,5.011s-2.507,4.289-5.013,4.028
				c-15.513-1.705-21.502,12.701-21.749,13.314C74.331,127.419,72.622,128.502,70.816,128.502z"/>
		</g>
		<g>
			<path fill="#161616" d="M56.509,128.514c-1.957,0-3.759-1.27-4.351-3.232c-0.154-0.485-3.357-10.114-16.333-13.861
				c-2.412-0.699-3.804-3.217-3.106-5.63c0.695-2.415,3.216-3.807,5.628-3.108c17.995,5.198,22.35,19.402,22.527,20.006
				c0.706,2.409-0.675,4.934-3.084,5.642C57.363,128.455,56.932,128.514,56.509,128.514z"/>
		</g>
		<g>
			<path fill="#161616" d="M264.663,201.023H120.615c-2.245,0-4.156-1.64-4.495-3.86l-1.976-12.929
				c-0.2-1.311,0.182-2.643,1.045-3.65c0.864-1.006,2.124-1.584,3.45-1.584h147.999c1.326,0,2.586,0.577,3.45,1.584
				c0.863,1.006,1.245,2.338,1.045,3.65l-1.976,12.929C268.819,199.383,266.908,201.023,264.663,201.023z M124.519,191.93h136.24
				l0.586-3.836H123.933L124.519,191.93z"/>
		</g>
	</g>
</g>
</svg>
